# xmcd
#
# Track frame offsets:
# 150
# 14638
# 32367
# 44539
# 55809
# 70528
# 85052
# 99090
# 111472
# 128739
# 146820
# 161556
# 176547
# 197460
# 216675
# 236537
# 253445
# 272810
# 293653
#
# Disc length: 4163 seconds
#
# Revision: 0
# Processed by: cddbd v1.5.2PL0 Copyright (c) Steve Scherf et al.
# Submitted via: Audion 3.0.2 (http://www.panic.com/audion/)
#
DISCID=17104113
DTITLE=Sergio Mendes - Coffee and Bossa
DYEAR=1900
DGENRE=
TTITLE0=Where is the Love
TTITLE1=Waters of March
TTITLE2=Mais Que Nada
TTITLE3=Agua De Beber
TTITLE4=Prett World
TTITLE5=Fool on the Hill
TTITLE6=Night and Day
TTITLE7=The Look of Love
TTITLE8=Like a Lover
TTITLE9=Hey Look at the Sun
TTITLE10=Put a Little Love Away
TTITLE11=Scarborough Fair
TTITLE12=This Masquerade
TTITLE13=Waiting for Love
TTITLE14=Take this love
TTITLE15=Lets Give a little more this time
TTITLE16=Never Gonna Let You Go
TTITLE17=What do we mean to each other
TTITLE18=Rainbow's End
EXTD=
EXTT0=
EXTT1=
EXTT2=
EXTT3=
EXTT4=
EXTT5=
EXTT6=
EXTT7=
EXTT8=
EXTT9=
EXTT10=
EXTT11=
EXTT12=
EXTT13=
EXTT14=
EXTT15=
EXTT16=
EXTT17=
EXTT18=
PLAYORDER=
